<mxfile host="65bd71144e" pages="2">
    <diagram id="2UOLL8jwvEfvEKw9rIqk" name="diagrama general">
        <mxGraphModel dx="898" dy="891" grid="0" gridSize="10" guides="1" tooltips="1" connect="1" arrows="1" fold="1" page="0" pageScale="1" pageWidth="827" pageHeight="1169" math="0" shadow="0">
            <root>
                <mxCell id="0"/>
                <mxCell id="1" parent="0"/>
                <mxCell id="LF0LJYnH_0LotxBYquTX-38" value="" style="endArrow=none;html=1;rounded=0;strokeWidth=5;fillColor=#f5f5f5;strokeColor=#666666;opacity=50;sketch=1;" parent="1" edge="1">
                    <mxGeometry width="50" height="50" relative="1" as="geometry">
                        <mxPoint x="505" y="174.5" as="sourcePoint"/>
                        <mxPoint x="125" y="174.5" as="targetPoint"/>
                    </mxGeometry>
                </mxCell>
                <mxCell id="LF0LJYnH_0LotxBYquTX-39" value="" style="endArrow=none;html=1;rounded=0;strokeWidth=5;fillColor=#f5f5f5;strokeColor=#666666;opacity=50;sketch=1;" parent="1" edge="1">
                    <mxGeometry width="50" height="50" relative="1" as="geometry">
                        <mxPoint x="505" y="225" as="sourcePoint"/>
                        <mxPoint x="125" y="225" as="targetPoint"/>
                    </mxGeometry>
                </mxCell>
                <mxCell id="LF0LJYnH_0LotxBYquTX-40" value="" style="endArrow=none;html=1;rounded=0;strokeWidth=5;fillColor=#f5f5f5;strokeColor=#666666;opacity=50;sketch=1;" parent="1" edge="1">
                    <mxGeometry width="50" height="50" relative="1" as="geometry">
                        <mxPoint x="505" y="274.5" as="sourcePoint"/>
                        <mxPoint x="125" y="274.5" as="targetPoint"/>
                    </mxGeometry>
                </mxCell>
                <mxCell id="LF0LJYnH_0LotxBYquTX-41" value="" style="endArrow=none;html=1;rounded=0;strokeWidth=5;fillColor=#f5f5f5;strokeColor=#666666;opacity=50;sketch=1;" parent="1" edge="1">
                    <mxGeometry width="50" height="50" relative="1" as="geometry">
                        <mxPoint x="505" y="325" as="sourcePoint"/>
                        <mxPoint x="125" y="325" as="targetPoint"/>
                    </mxGeometry>
                </mxCell>
                <mxCell id="LF0LJYnH_0LotxBYquTX-42" value="" style="endArrow=none;html=1;rounded=0;strokeWidth=5;fillColor=#f5f5f5;strokeColor=#666666;opacity=50;sketch=1;" parent="1" edge="1">
                    <mxGeometry width="50" height="50" relative="1" as="geometry">
                        <mxPoint x="505" y="374.5" as="sourcePoint"/>
                        <mxPoint x="125" y="374.5" as="targetPoint"/>
                    </mxGeometry>
                </mxCell>
                <mxCell id="LF0LJYnH_0LotxBYquTX-43" value="" style="endArrow=none;html=1;rounded=0;strokeWidth=5;fillColor=#f5f5f5;strokeColor=#666666;opacity=50;sketch=1;" parent="1" edge="1">
                    <mxGeometry width="50" height="50" relative="1" as="geometry">
                        <mxPoint x="505" y="425" as="sourcePoint"/>
                        <mxPoint x="125" y="425" as="targetPoint"/>
                    </mxGeometry>
                </mxCell>
                <mxCell id="LF0LJYnH_0LotxBYquTX-25" value="" style="endArrow=none;html=1;rounded=0;strokeWidth=5;fillColor=#f5f5f5;strokeColor=#666666;opacity=50;sketch=1;" parent="1" edge="1">
                    <mxGeometry width="50" height="50" relative="1" as="geometry">
                        <mxPoint x="165" y="470" as="sourcePoint"/>
                        <mxPoint x="165" y="80" as="targetPoint"/>
                    </mxGeometry>
                </mxCell>
                <mxCell id="LF0LJYnH_0LotxBYquTX-30" value="" style="endArrow=none;html=1;rounded=0;strokeWidth=5;fillColor=#f5f5f5;strokeColor=#666666;opacity=50;sketch=1;" parent="1" edge="1">
                    <mxGeometry width="50" height="50" relative="1" as="geometry">
                        <mxPoint x="465" y="470" as="sourcePoint"/>
                        <mxPoint x="465" y="80" as="targetPoint"/>
                    </mxGeometry>
                </mxCell>
                <mxCell id="LF0LJYnH_0LotxBYquTX-26" value="" style="endArrow=none;html=1;rounded=0;strokeWidth=5;fillColor=#f5f5f5;strokeColor=#666666;opacity=50;sketch=1;" parent="1" edge="1">
                    <mxGeometry width="50" height="50" relative="1" as="geometry">
                        <mxPoint x="265" y="470" as="sourcePoint"/>
                        <mxPoint x="265" y="80" as="targetPoint"/>
                    </mxGeometry>
                </mxCell>
                <mxCell id="LF0LJYnH_0LotxBYquTX-27" value="" style="endArrow=none;html=1;rounded=0;strokeWidth=5;fillColor=#f5f5f5;strokeColor=#666666;opacity=50;sketch=1;" parent="1" edge="1">
                    <mxGeometry width="50" height="50" relative="1" as="geometry">
                        <mxPoint x="315.5" y="470" as="sourcePoint"/>
                        <mxPoint x="315.5" y="80" as="targetPoint"/>
                    </mxGeometry>
                </mxCell>
                <mxCell id="LF0LJYnH_0LotxBYquTX-28" value="" style="endArrow=none;html=1;rounded=0;strokeWidth=5;fillColor=#f5f5f5;strokeColor=#666666;opacity=50;sketch=1;" parent="1" edge="1">
                    <mxGeometry width="50" height="50" relative="1" as="geometry">
                        <mxPoint x="365" y="470" as="sourcePoint"/>
                        <mxPoint x="365" y="80" as="targetPoint"/>
                    </mxGeometry>
                </mxCell>
                <mxCell id="LF0LJYnH_0LotxBYquTX-29" value="" style="endArrow=none;html=1;rounded=0;strokeWidth=5;fillColor=#f5f5f5;strokeColor=#666666;opacity=50;sketch=1;" parent="1" edge="1">
                    <mxGeometry width="50" height="50" relative="1" as="geometry">
                        <mxPoint x="415" y="470" as="sourcePoint"/>
                        <mxPoint x="415" y="80" as="targetPoint"/>
                    </mxGeometry>
                </mxCell>
                <mxCell id="LF0LJYnH_0LotxBYquTX-37" value="" style="endArrow=none;html=1;rounded=0;strokeWidth=5;fillColor=#f5f5f5;strokeColor=#666666;opacity=50;sketch=1;" parent="1" edge="1">
                    <mxGeometry width="50" height="50" relative="1" as="geometry">
                        <mxPoint x="505" y="125" as="sourcePoint"/>
                        <mxPoint x="125" y="125" as="targetPoint"/>
                    </mxGeometry>
                </mxCell>
                <mxCell id="LF0LJYnH_0LotxBYquTX-24" value="" style="endArrow=none;html=1;rounded=0;strokeWidth=5;fillColor=#f5f5f5;strokeColor=#666666;opacity=50;sketch=1;" parent="1" edge="1">
                    <mxGeometry width="50" height="50" relative="1" as="geometry">
                        <mxPoint x="215" y="470" as="sourcePoint"/>
                        <mxPoint x="215" y="80" as="targetPoint"/>
                    </mxGeometry>
                </mxCell>
                <mxCell id="LF0LJYnH_0LotxBYquTX-1" value="" style="whiteSpace=wrap;html=1;aspect=fixed;fillColor=none;strokeWidth=5;" parent="1" vertex="1">
                    <mxGeometry x="160" y="120" width="310" height="310" as="geometry"/>
                </mxCell>
                <mxCell id="LF0LJYnH_0LotxBYquTX-5" value="" style="rounded=1;whiteSpace=wrap;html=1;fillColor=#dae8fc;strokeColor=#6c8ebf;opacity=80;" parent="1" vertex="1">
                    <mxGeometry x="170" y="130" width="90" height="40" as="geometry"/>
                </mxCell>
                <mxCell id="LF0LJYnH_0LotxBYquTX-6" value="" style="rounded=1;whiteSpace=wrap;html=1;fillColor=#e1d5e7;strokeColor=#9673a6;opacity=80;" parent="1" vertex="1">
                    <mxGeometry x="170" y="180" width="140" height="40" as="geometry"/>
                </mxCell>
                <mxCell id="LF0LJYnH_0LotxBYquTX-8" value="" style="rounded=1;whiteSpace=wrap;html=1;fillColor=#f8cecc;strokeColor=#b85450;opacity=80;" parent="1" vertex="1">
                    <mxGeometry x="170" y="230" width="90" height="40" as="geometry"/>
                </mxCell>
                <mxCell id="LF0LJYnH_0LotxBYquTX-9" value="" style="rounded=1;whiteSpace=wrap;html=1;fillColor=#dae8fc;strokeColor=#6c8ebf;opacity=80;" parent="1" vertex="1">
                    <mxGeometry x="170" y="280" width="90" height="40" as="geometry"/>
                </mxCell>
                <mxCell id="LF0LJYnH_0LotxBYquTX-10" value="" style="rounded=1;whiteSpace=wrap;html=1;fillColor=#dae8fc;strokeColor=#6c8ebf;opacity=80;" parent="1" vertex="1">
                    <mxGeometry x="170" y="380" width="90" height="40" as="geometry"/>
                </mxCell>
                <mxCell id="LF0LJYnH_0LotxBYquTX-11" value="" style="rounded=1;whiteSpace=wrap;html=1;fillColor=#e1d5e7;strokeColor=#9673a6;opacity=80;" parent="1" vertex="1">
                    <mxGeometry x="170" y="330" width="140" height="40" as="geometry"/>
                </mxCell>
                <mxCell id="LF0LJYnH_0LotxBYquTX-12" value="" style="rounded=1;whiteSpace=wrap;html=1;fillColor=#dae8fc;strokeColor=#6c8ebf;rotation=-90;opacity=80;" parent="1" vertex="1">
                    <mxGeometry x="245" y="255" width="90" height="40" as="geometry"/>
                </mxCell>
                <mxCell id="LF0LJYnH_0LotxBYquTX-13" value="" style="rounded=1;whiteSpace=wrap;html=1;fillColor=#f5f5f5;fontColor=#333333;strokeColor=#666666;opacity=80;" parent="1" vertex="1">
                    <mxGeometry x="270" y="130" width="40" height="40" as="geometry"/>
                </mxCell>
                <mxCell id="LF0LJYnH_0LotxBYquTX-14" value="" style="rounded=1;whiteSpace=wrap;html=1;fillColor=#f5f5f5;fontColor=#333333;strokeColor=#666666;opacity=80;" parent="1" vertex="1">
                    <mxGeometry x="270" y="380" width="40" height="40" as="geometry"/>
                </mxCell>
                <mxCell id="LF0LJYnH_0LotxBYquTX-15" value="" style="rounded=1;whiteSpace=wrap;html=1;fillColor=#e1d5e7;strokeColor=#9673a6;rotation=-90;opacity=80;" parent="1" vertex="1">
                    <mxGeometry x="270" y="180" width="140" height="40" as="geometry"/>
                </mxCell>
                <mxCell id="LF0LJYnH_0LotxBYquTX-16" value="" style="rounded=1;whiteSpace=wrap;html=1;fillColor=#e1d5e7;strokeColor=#9673a6;rotation=-90;opacity=80;" parent="1" vertex="1">
                    <mxGeometry x="270" y="330" width="140" height="40" as="geometry"/>
                </mxCell>
                <mxCell id="LF0LJYnH_0LotxBYquTX-17" value="" style="rounded=1;whiteSpace=wrap;html=1;fillColor=#dae8fc;strokeColor=#6c8ebf;rotation=-90;opacity=80;" parent="1" vertex="1">
                    <mxGeometry x="395" y="155" width="90" height="40" as="geometry"/>
                </mxCell>
                <mxCell id="LF0LJYnH_0LotxBYquTX-18" value="" style="rounded=1;whiteSpace=wrap;html=1;fillColor=#dae8fc;strokeColor=#6c8ebf;rotation=-90;opacity=80;" parent="1" vertex="1">
                    <mxGeometry x="345" y="155" width="90" height="40" as="geometry"/>
                </mxCell>
                <mxCell id="LF0LJYnH_0LotxBYquTX-19" value="" style="rounded=1;whiteSpace=wrap;html=1;fillColor=#dae8fc;strokeColor=#6c8ebf;rotation=-90;opacity=80;" parent="1" vertex="1">
                    <mxGeometry x="395" y="255" width="90" height="40" as="geometry"/>
                </mxCell>
                <mxCell id="LF0LJYnH_0LotxBYquTX-20" value="" style="rounded=1;whiteSpace=wrap;html=1;fillColor=#dae8fc;strokeColor=#6c8ebf;rotation=-90;opacity=80;" parent="1" vertex="1">
                    <mxGeometry x="345" y="255" width="90" height="40" as="geometry"/>
                </mxCell>
                <mxCell id="LF0LJYnH_0LotxBYquTX-21" value="" style="rounded=1;whiteSpace=wrap;html=1;fillColor=#dae8fc;strokeColor=#6c8ebf;rotation=-90;opacity=80;" parent="1" vertex="1">
                    <mxGeometry x="395" y="355" width="90" height="40" as="geometry"/>
                </mxCell>
                <mxCell id="LF0LJYnH_0LotxBYquTX-22" value="" style="rounded=1;whiteSpace=wrap;html=1;fillColor=#dae8fc;strokeColor=#6c8ebf;rotation=-90;opacity=80;" parent="1" vertex="1">
                    <mxGeometry x="345" y="355" width="90" height="40" as="geometry"/>
                </mxCell>
                <mxCell id="LF0LJYnH_0LotxBYquTX-45" value="" style="shape=flexArrow;endArrow=classic;html=1;rounded=0;sketch=1;strokeWidth=5;opacity=50;exitX=1;exitY=0.423;exitDx=0;exitDy=0;exitPerimeter=0;" parent="1" source="LF0LJYnH_0LotxBYquTX-1" edge="1">
                    <mxGeometry width="50" height="50" relative="1" as="geometry">
                        <mxPoint x="390" y="370" as="sourcePoint"/>
                        <mxPoint x="520" y="250" as="targetPoint"/>
                    </mxGeometry>
                </mxCell>
                <mxCell id="LF0LJYnH_0LotxBYquTX-46" value="salida" style="text;html=1;align=center;verticalAlign=middle;resizable=0;points=[];autosize=1;strokeColor=none;fillColor=none;" parent="1" vertex="1">
                    <mxGeometry x="514" y="240" width="50" height="20" as="geometry"/>
                </mxCell>
                <mxCell id="GtPQMKniDz939423LvoD-1" value="" style="endArrow=none;html=1;rounded=0;strokeWidth=5;fillColor=#f5f5f5;strokeColor=#666666;opacity=50;sketch=1;" parent="1" edge="1">
                    <mxGeometry width="50" height="50" relative="1" as="geometry">
                        <mxPoint x="465" y="920" as="sourcePoint"/>
                        <mxPoint x="465" y="530" as="targetPoint"/>
                    </mxGeometry>
                </mxCell>
                <mxCell id="GtPQMKniDz939423LvoD-2" value="" style="endArrow=none;html=1;rounded=0;strokeWidth=5;fillColor=#f5f5f5;strokeColor=#666666;opacity=50;sketch=1;" parent="1" edge="1">
                    <mxGeometry width="50" height="50" relative="1" as="geometry">
                        <mxPoint x="265" y="920" as="sourcePoint"/>
                        <mxPoint x="265" y="530" as="targetPoint"/>
                    </mxGeometry>
                </mxCell>
                <mxCell id="GtPQMKniDz939423LvoD-3" value="" style="endArrow=none;html=1;rounded=0;strokeWidth=5;fillColor=#f5f5f5;strokeColor=#666666;opacity=50;sketch=1;" parent="1" edge="1">
                    <mxGeometry width="50" height="50" relative="1" as="geometry">
                        <mxPoint x="315.5" y="920" as="sourcePoint"/>
                        <mxPoint x="315.5" y="530" as="targetPoint"/>
                    </mxGeometry>
                </mxCell>
                <mxCell id="GtPQMKniDz939423LvoD-4" value="" style="endArrow=none;html=1;rounded=0;strokeWidth=5;fillColor=#f5f5f5;strokeColor=#666666;opacity=50;sketch=1;" parent="1" edge="1">
                    <mxGeometry width="50" height="50" relative="1" as="geometry">
                        <mxPoint x="365" y="920" as="sourcePoint"/>
                        <mxPoint x="365" y="530" as="targetPoint"/>
                    </mxGeometry>
                </mxCell>
                <mxCell id="GtPQMKniDz939423LvoD-5" value="" style="endArrow=none;html=1;rounded=0;strokeWidth=5;fillColor=#f5f5f5;strokeColor=#666666;opacity=50;sketch=1;" parent="1" edge="1">
                    <mxGeometry width="50" height="50" relative="1" as="geometry">
                        <mxPoint x="415" y="920" as="sourcePoint"/>
                        <mxPoint x="415" y="530" as="targetPoint"/>
                    </mxGeometry>
                </mxCell>
                <mxCell id="GtPQMKniDz939423LvoD-6" value="" style="endArrow=none;html=1;rounded=0;strokeWidth=5;fillColor=#f5f5f5;strokeColor=#666666;opacity=50;sketch=1;" parent="1" edge="1">
                    <mxGeometry width="50" height="50" relative="1" as="geometry">
                        <mxPoint x="505" y="575" as="sourcePoint"/>
                        <mxPoint x="125" y="575" as="targetPoint"/>
                    </mxGeometry>
                </mxCell>
                <mxCell id="GtPQMKniDz939423LvoD-7" value="" style="endArrow=none;html=1;rounded=0;strokeWidth=5;fillColor=#f5f5f5;strokeColor=#666666;opacity=50;sketch=1;" parent="1" edge="1">
                    <mxGeometry width="50" height="50" relative="1" as="geometry">
                        <mxPoint x="215" y="920" as="sourcePoint"/>
                        <mxPoint x="215" y="530" as="targetPoint"/>
                    </mxGeometry>
                </mxCell>
                <mxCell id="GtPQMKniDz939423LvoD-9" value="longitud = 3" style="rounded=1;whiteSpace=wrap;html=1;fillColor=#e1d5e7;strokeColor=#9673a6;aspect=fixed;opacity=80;" parent="1" vertex="1">
                    <mxGeometry x="600" y="120" width="140" height="40" as="geometry"/>
                </mxCell>
                <mxCell id="GtPQMKniDz939423LvoD-10" value="longitud = 2" style="rounded=1;whiteSpace=wrap;html=1;fillColor=#dae8fc;strokeColor=#6c8ebf;opacity=80;" parent="1" vertex="1">
                    <mxGeometry x="650" y="200" width="90" height="40" as="geometry"/>
                </mxCell>
                <mxCell id="GtPQMKniDz939423LvoD-11" value="L = 1" style="rounded=1;whiteSpace=wrap;html=1;fillColor=#f5f5f5;fontColor=#333333;strokeColor=#666666;opacity=80;" parent="1" vertex="1">
                    <mxGeometry x="700" y="280" width="40" height="40" as="geometry"/>
                </mxCell>
                <mxCell id="GtPQMKniDz939423LvoD-12" value="longitud = 2" style="rounded=1;whiteSpace=wrap;html=1;fillColor=#f8cecc;strokeColor=#b85450;opacity=80;" parent="1" vertex="1">
                    <mxGeometry x="650" y="360" width="90" height="40" as="geometry"/>
                </mxCell>
                <mxCell id="GtPQMKniDz939423LvoD-13" value="" style="endArrow=none;html=1;rounded=0;strokeWidth=5;fillColor=#f5f5f5;strokeColor=#666666;opacity=50;sketch=1;" parent="1" edge="1">
                    <mxGeometry width="50" height="50" relative="1" as="geometry">
                        <mxPoint x="165" y="920" as="sourcePoint"/>
                        <mxPoint x="165" y="530" as="targetPoint"/>
                    </mxGeometry>
                </mxCell>
                <mxCell id="GtPQMKniDz939423LvoD-14" value="" style="endArrow=none;html=1;rounded=0;strokeWidth=5;fillColor=#f5f5f5;strokeColor=#666666;opacity=50;sketch=1;" parent="1" edge="1">
                    <mxGeometry width="50" height="50" relative="1" as="geometry">
                        <mxPoint x="505" y="624.5" as="sourcePoint"/>
                        <mxPoint x="125" y="624.5" as="targetPoint"/>
                    </mxGeometry>
                </mxCell>
                <mxCell id="GtPQMKniDz939423LvoD-15" value="" style="endArrow=none;html=1;rounded=0;strokeWidth=5;fillColor=#f5f5f5;strokeColor=#666666;opacity=50;sketch=1;" parent="1" edge="1">
                    <mxGeometry width="50" height="50" relative="1" as="geometry">
                        <mxPoint x="505" y="675" as="sourcePoint"/>
                        <mxPoint x="125" y="675" as="targetPoint"/>
                    </mxGeometry>
                </mxCell>
                <mxCell id="GtPQMKniDz939423LvoD-16" value="" style="endArrow=none;html=1;rounded=0;strokeWidth=5;fillColor=#f5f5f5;strokeColor=#666666;opacity=50;sketch=1;" parent="1" edge="1">
                    <mxGeometry width="50" height="50" relative="1" as="geometry">
                        <mxPoint x="505" y="724.5" as="sourcePoint"/>
                        <mxPoint x="125" y="724.5" as="targetPoint"/>
                    </mxGeometry>
                </mxCell>
                <mxCell id="GtPQMKniDz939423LvoD-17" value="" style="endArrow=none;html=1;rounded=0;strokeWidth=5;fillColor=#f5f5f5;strokeColor=#666666;opacity=50;sketch=1;" parent="1" edge="1">
                    <mxGeometry width="50" height="50" relative="1" as="geometry">
                        <mxPoint x="505" y="775" as="sourcePoint"/>
                        <mxPoint x="125" y="775" as="targetPoint"/>
                    </mxGeometry>
                </mxCell>
                <mxCell id="GtPQMKniDz939423LvoD-18" value="" style="endArrow=none;html=1;rounded=0;strokeWidth=5;fillColor=#f5f5f5;strokeColor=#666666;opacity=50;sketch=1;" parent="1" edge="1">
                    <mxGeometry width="50" height="50" relative="1" as="geometry">
                        <mxPoint x="505" y="824.5" as="sourcePoint"/>
                        <mxPoint x="125" y="824.5" as="targetPoint"/>
                    </mxGeometry>
                </mxCell>
                <mxCell id="GtPQMKniDz939423LvoD-19" value="" style="endArrow=none;html=1;rounded=0;strokeWidth=5;fillColor=#f5f5f5;strokeColor=#666666;opacity=50;sketch=1;" parent="1" edge="1">
                    <mxGeometry width="50" height="50" relative="1" as="geometry">
                        <mxPoint x="505" y="875" as="sourcePoint"/>
                        <mxPoint x="125" y="875" as="targetPoint"/>
                    </mxGeometry>
                </mxCell>
                <mxCell id="GtPQMKniDz939423LvoD-22" value="x4" style="text;html=1;align=center;verticalAlign=middle;resizable=0;points=[];autosize=1;strokeColor=none;fillColor=none;" parent="1" vertex="1">
                    <mxGeometry x="745" y="130" width="30" height="20" as="geometry"/>
                </mxCell>
                <mxCell id="GtPQMKniDz939423LvoD-23" value="x10" style="text;html=1;align=center;verticalAlign=middle;resizable=0;points=[];autosize=1;strokeColor=none;fillColor=none;" parent="1" vertex="1">
                    <mxGeometry x="740" y="210" width="40" height="20" as="geometry"/>
                </mxCell>
                <mxCell id="GtPQMKniDz939423LvoD-24" value="x2" style="text;html=1;align=center;verticalAlign=middle;resizable=0;points=[];autosize=1;strokeColor=none;fillColor=none;" parent="1" vertex="1">
                    <mxGeometry x="745" y="290" width="30" height="20" as="geometry"/>
                </mxCell>
                <mxCell id="GtPQMKniDz939423LvoD-25" value="x1" style="text;html=1;align=center;verticalAlign=middle;resizable=0;points=[];autosize=1;strokeColor=none;fillColor=none;" parent="1" vertex="1">
                    <mxGeometry x="750" y="370" width="30" height="20" as="geometry"/>
                </mxCell>
                <mxCell id="GtPQMKniDz939423LvoD-26" value="Puzzle Slider 6x6" style="text;html=1;align=center;verticalAlign=middle;resizable=0;points=[];autosize=1;strokeColor=#001DBC;fillColor=#0050ef;fontSize=20;fontColor=#ffffff;" parent="1" vertex="1">
                    <mxGeometry x="225" y="-10" width="170" height="30" as="geometry"/>
                </mxCell>
                <mxCell id="GtPQMKniDz939423LvoD-8" value="" style="whiteSpace=wrap;html=1;aspect=fixed;fillColor=none;strokeWidth=5;" parent="1" vertex="1">
                    <mxGeometry x="160" y="570" width="310" height="310" as="geometry"/>
                </mxCell>
                <mxCell id="GtPQMKniDz939423LvoD-21" value="salida" style="text;html=1;align=center;verticalAlign=middle;resizable=0;points=[];autosize=1;strokeColor=none;fillColor=none;" parent="1" vertex="1">
                    <mxGeometry x="514" y="690" width="50" height="20" as="geometry"/>
                </mxCell>
                <mxCell id="GtPQMKniDz939423LvoD-20" value="" style="shape=flexArrow;endArrow=classic;html=1;rounded=0;sketch=1;strokeWidth=5;opacity=50;exitX=1;exitY=0.423;exitDx=0;exitDy=0;exitPerimeter=0;" parent="1" source="GtPQMKniDz939423LvoD-8" edge="1">
                    <mxGeometry width="50" height="50" relative="1" as="geometry">
                        <mxPoint x="390" y="820" as="sourcePoint"/>
                        <mxPoint x="520" y="700" as="targetPoint"/>
                    </mxGeometry>
                </mxCell>
            </root>
        </mxGraphModel>
    </diagram>
    <diagram name="partida 01" id="KqjLcRQNx778bB_6EgBf">
        <mxGraphModel dx="898" dy="491" grid="1" gridSize="10" guides="1" tooltips="1" connect="1" arrows="1" fold="1" page="0" pageScale="1" pageWidth="827" pageHeight="1169" math="0" shadow="0">
            <root>
                <mxCell id="3pQwZECXO3xDJ3NQUO3c-0"/>
                <mxCell id="3pQwZECXO3xDJ3NQUO3c-1" parent="3pQwZECXO3xDJ3NQUO3c-0"/>
                <mxCell id="T0AQAwc7pnPNX5juXCz9-0" value="" style="endArrow=none;html=1;rounded=0;strokeWidth=5;fillColor=#f5f5f5;strokeColor=#666666;opacity=50;sketch=1;" edge="1" parent="3pQwZECXO3xDJ3NQUO3c-1">
                    <mxGeometry width="50" height="50" relative="1" as="geometry">
                        <mxPoint x="505" y="174.5" as="sourcePoint"/>
                        <mxPoint x="125" y="174.5" as="targetPoint"/>
                    </mxGeometry>
                </mxCell>
                <mxCell id="T0AQAwc7pnPNX5juXCz9-1" value="" style="endArrow=none;html=1;rounded=0;strokeWidth=5;fillColor=#f5f5f5;strokeColor=#666666;opacity=50;sketch=1;" edge="1" parent="3pQwZECXO3xDJ3NQUO3c-1">
                    <mxGeometry width="50" height="50" relative="1" as="geometry">
                        <mxPoint x="505" y="225" as="sourcePoint"/>
                        <mxPoint x="125" y="225" as="targetPoint"/>
                    </mxGeometry>
                </mxCell>
                <mxCell id="T0AQAwc7pnPNX5juXCz9-2" value="" style="endArrow=none;html=1;rounded=0;strokeWidth=5;fillColor=#f5f5f5;strokeColor=#666666;opacity=50;sketch=1;" edge="1" parent="3pQwZECXO3xDJ3NQUO3c-1">
                    <mxGeometry width="50" height="50" relative="1" as="geometry">
                        <mxPoint x="505" y="274.5" as="sourcePoint"/>
                        <mxPoint x="125" y="274.5" as="targetPoint"/>
                    </mxGeometry>
                </mxCell>
                <mxCell id="T0AQAwc7pnPNX5juXCz9-3" value="" style="endArrow=none;html=1;rounded=0;strokeWidth=5;fillColor=#f5f5f5;strokeColor=#666666;opacity=50;sketch=1;" edge="1" parent="3pQwZECXO3xDJ3NQUO3c-1">
                    <mxGeometry width="50" height="50" relative="1" as="geometry">
                        <mxPoint x="505" y="325" as="sourcePoint"/>
                        <mxPoint x="125" y="325" as="targetPoint"/>
                    </mxGeometry>
                </mxCell>
                <mxCell id="T0AQAwc7pnPNX5juXCz9-4" value="" style="endArrow=none;html=1;rounded=0;strokeWidth=5;fillColor=#f5f5f5;strokeColor=#666666;opacity=50;sketch=1;" edge="1" parent="3pQwZECXO3xDJ3NQUO3c-1">
                    <mxGeometry width="50" height="50" relative="1" as="geometry">
                        <mxPoint x="505" y="374.5" as="sourcePoint"/>
                        <mxPoint x="125" y="374.5" as="targetPoint"/>
                    </mxGeometry>
                </mxCell>
                <mxCell id="T0AQAwc7pnPNX5juXCz9-5" value="" style="endArrow=none;html=1;rounded=0;strokeWidth=5;fillColor=#f5f5f5;strokeColor=#666666;opacity=50;sketch=1;" edge="1" parent="3pQwZECXO3xDJ3NQUO3c-1">
                    <mxGeometry width="50" height="50" relative="1" as="geometry">
                        <mxPoint x="505" y="425" as="sourcePoint"/>
                        <mxPoint x="125" y="425" as="targetPoint"/>
                    </mxGeometry>
                </mxCell>
                <mxCell id="T0AQAwc7pnPNX5juXCz9-6" value="" style="endArrow=none;html=1;rounded=0;strokeWidth=5;fillColor=#f5f5f5;strokeColor=#666666;opacity=50;sketch=1;" edge="1" parent="3pQwZECXO3xDJ3NQUO3c-1">
                    <mxGeometry width="50" height="50" relative="1" as="geometry">
                        <mxPoint x="165" y="470" as="sourcePoint"/>
                        <mxPoint x="165" y="80" as="targetPoint"/>
                    </mxGeometry>
                </mxCell>
                <mxCell id="T0AQAwc7pnPNX5juXCz9-7" value="" style="endArrow=none;html=1;rounded=0;strokeWidth=5;fillColor=#f5f5f5;strokeColor=#666666;opacity=50;sketch=1;" edge="1" parent="3pQwZECXO3xDJ3NQUO3c-1">
                    <mxGeometry width="50" height="50" relative="1" as="geometry">
                        <mxPoint x="465" y="470" as="sourcePoint"/>
                        <mxPoint x="465" y="80" as="targetPoint"/>
                    </mxGeometry>
                </mxCell>
                <mxCell id="T0AQAwc7pnPNX5juXCz9-8" value="" style="endArrow=none;html=1;rounded=0;strokeWidth=5;fillColor=#f5f5f5;strokeColor=#666666;opacity=50;sketch=1;" edge="1" parent="3pQwZECXO3xDJ3NQUO3c-1">
                    <mxGeometry width="50" height="50" relative="1" as="geometry">
                        <mxPoint x="265" y="470" as="sourcePoint"/>
                        <mxPoint x="265" y="80" as="targetPoint"/>
                    </mxGeometry>
                </mxCell>
                <mxCell id="T0AQAwc7pnPNX5juXCz9-9" value="" style="endArrow=none;html=1;rounded=0;strokeWidth=5;fillColor=#f5f5f5;strokeColor=#666666;opacity=50;sketch=1;" edge="1" parent="3pQwZECXO3xDJ3NQUO3c-1">
                    <mxGeometry width="50" height="50" relative="1" as="geometry">
                        <mxPoint x="315.5" y="470" as="sourcePoint"/>
                        <mxPoint x="315.5" y="80" as="targetPoint"/>
                    </mxGeometry>
                </mxCell>
                <mxCell id="T0AQAwc7pnPNX5juXCz9-10" value="" style="endArrow=none;html=1;rounded=0;strokeWidth=5;fillColor=#f5f5f5;strokeColor=#666666;opacity=50;sketch=1;" edge="1" parent="3pQwZECXO3xDJ3NQUO3c-1">
                    <mxGeometry width="50" height="50" relative="1" as="geometry">
                        <mxPoint x="365" y="470" as="sourcePoint"/>
                        <mxPoint x="365" y="80" as="targetPoint"/>
                    </mxGeometry>
                </mxCell>
                <mxCell id="T0AQAwc7pnPNX5juXCz9-11" value="" style="endArrow=none;html=1;rounded=0;strokeWidth=5;fillColor=#f5f5f5;strokeColor=#666666;opacity=50;sketch=1;" edge="1" parent="3pQwZECXO3xDJ3NQUO3c-1">
                    <mxGeometry width="50" height="50" relative="1" as="geometry">
                        <mxPoint x="415" y="470" as="sourcePoint"/>
                        <mxPoint x="415" y="80" as="targetPoint"/>
                    </mxGeometry>
                </mxCell>
                <mxCell id="T0AQAwc7pnPNX5juXCz9-12" value="" style="endArrow=none;html=1;rounded=0;strokeWidth=5;fillColor=#f5f5f5;strokeColor=#666666;opacity=50;sketch=1;" edge="1" parent="3pQwZECXO3xDJ3NQUO3c-1">
                    <mxGeometry width="50" height="50" relative="1" as="geometry">
                        <mxPoint x="505" y="125" as="sourcePoint"/>
                        <mxPoint x="125" y="125" as="targetPoint"/>
                    </mxGeometry>
                </mxCell>
                <mxCell id="T0AQAwc7pnPNX5juXCz9-13" value="" style="endArrow=none;html=1;rounded=0;strokeWidth=5;fillColor=#f5f5f5;strokeColor=#666666;opacity=50;sketch=1;" edge="1" parent="3pQwZECXO3xDJ3NQUO3c-1">
                    <mxGeometry width="50" height="50" relative="1" as="geometry">
                        <mxPoint x="215" y="470" as="sourcePoint"/>
                        <mxPoint x="215" y="80" as="targetPoint"/>
                    </mxGeometry>
                </mxCell>
                <mxCell id="T0AQAwc7pnPNX5juXCz9-14" value="" style="whiteSpace=wrap;html=1;aspect=fixed;fillColor=none;strokeWidth=5;" vertex="1" parent="3pQwZECXO3xDJ3NQUO3c-1">
                    <mxGeometry x="160" y="120" width="310" height="310" as="geometry"/>
                </mxCell>
                <mxCell id="T0AQAwc7pnPNX5juXCz9-17" value="" style="rounded=1;whiteSpace=wrap;html=1;fillColor=#f8cecc;strokeColor=#b85450;opacity=80;" vertex="1" parent="3pQwZECXO3xDJ3NQUO3c-1">
                    <mxGeometry x="170" y="230" width="90" height="40" as="geometry"/>
                </mxCell>
                <mxCell id="T0AQAwc7pnPNX5juXCz9-32" value="" style="shape=flexArrow;endArrow=classic;html=1;rounded=0;sketch=1;strokeWidth=5;opacity=50;exitX=1;exitY=0.423;exitDx=0;exitDy=0;exitPerimeter=0;" edge="1" parent="3pQwZECXO3xDJ3NQUO3c-1" source="T0AQAwc7pnPNX5juXCz9-14">
                    <mxGeometry width="50" height="50" relative="1" as="geometry">
                        <mxPoint x="390" y="370" as="sourcePoint"/>
                        <mxPoint x="520" y="250" as="targetPoint"/>
                    </mxGeometry>
                </mxCell>
                <mxCell id="T0AQAwc7pnPNX5juXCz9-33" value="salida" style="text;html=1;align=center;verticalAlign=middle;resizable=0;points=[];autosize=1;strokeColor=none;fillColor=none;" vertex="1" parent="3pQwZECXO3xDJ3NQUO3c-1">
                    <mxGeometry x="514" y="240" width="50" height="20" as="geometry"/>
                </mxCell>
                <mxCell id="T0AQAwc7pnPNX5juXCz9-34" value="" style="endArrow=none;html=1;rounded=0;strokeWidth=5;fillColor=#f5f5f5;strokeColor=#666666;opacity=50;sketch=1;" edge="1" parent="3pQwZECXO3xDJ3NQUO3c-1">
                    <mxGeometry width="50" height="50" relative="1" as="geometry">
                        <mxPoint x="505" y="584.5" as="sourcePoint"/>
                        <mxPoint x="125" y="584.5" as="targetPoint"/>
                    </mxGeometry>
                </mxCell>
                <mxCell id="T0AQAwc7pnPNX5juXCz9-35" value="" style="endArrow=none;html=1;rounded=0;strokeWidth=5;fillColor=#f5f5f5;strokeColor=#666666;opacity=50;sketch=1;" edge="1" parent="3pQwZECXO3xDJ3NQUO3c-1">
                    <mxGeometry width="50" height="50" relative="1" as="geometry">
                        <mxPoint x="505" y="635" as="sourcePoint"/>
                        <mxPoint x="125" y="635" as="targetPoint"/>
                    </mxGeometry>
                </mxCell>
                <mxCell id="T0AQAwc7pnPNX5juXCz9-36" value="" style="endArrow=none;html=1;rounded=0;strokeWidth=5;fillColor=#f5f5f5;strokeColor=#666666;opacity=50;sketch=1;" edge="1" parent="3pQwZECXO3xDJ3NQUO3c-1">
                    <mxGeometry width="50" height="50" relative="1" as="geometry">
                        <mxPoint x="505" y="684.5" as="sourcePoint"/>
                        <mxPoint x="125" y="684.5" as="targetPoint"/>
                    </mxGeometry>
                </mxCell>
                <mxCell id="T0AQAwc7pnPNX5juXCz9-37" value="" style="endArrow=none;html=1;rounded=0;strokeWidth=5;fillColor=#f5f5f5;strokeColor=#666666;opacity=50;sketch=1;" edge="1" parent="3pQwZECXO3xDJ3NQUO3c-1">
                    <mxGeometry width="50" height="50" relative="1" as="geometry">
                        <mxPoint x="505" y="735" as="sourcePoint"/>
                        <mxPoint x="125" y="735" as="targetPoint"/>
                    </mxGeometry>
                </mxCell>
                <mxCell id="T0AQAwc7pnPNX5juXCz9-38" value="" style="endArrow=none;html=1;rounded=0;strokeWidth=5;fillColor=#f5f5f5;strokeColor=#666666;opacity=50;sketch=1;" edge="1" parent="3pQwZECXO3xDJ3NQUO3c-1">
                    <mxGeometry width="50" height="50" relative="1" as="geometry">
                        <mxPoint x="505" y="784.5" as="sourcePoint"/>
                        <mxPoint x="125" y="784.5" as="targetPoint"/>
                    </mxGeometry>
                </mxCell>
                <mxCell id="T0AQAwc7pnPNX5juXCz9-39" value="" style="endArrow=none;html=1;rounded=0;strokeWidth=5;fillColor=#f5f5f5;strokeColor=#666666;opacity=50;sketch=1;" edge="1" parent="3pQwZECXO3xDJ3NQUO3c-1">
                    <mxGeometry width="50" height="50" relative="1" as="geometry">
                        <mxPoint x="505" y="835" as="sourcePoint"/>
                        <mxPoint x="125" y="835" as="targetPoint"/>
                    </mxGeometry>
                </mxCell>
                <mxCell id="T0AQAwc7pnPNX5juXCz9-40" value="" style="endArrow=none;html=1;rounded=0;strokeWidth=5;fillColor=#f5f5f5;strokeColor=#666666;opacity=50;sketch=1;" edge="1" parent="3pQwZECXO3xDJ3NQUO3c-1">
                    <mxGeometry width="50" height="50" relative="1" as="geometry">
                        <mxPoint x="165" y="880" as="sourcePoint"/>
                        <mxPoint x="165" y="490" as="targetPoint"/>
                    </mxGeometry>
                </mxCell>
                <mxCell id="T0AQAwc7pnPNX5juXCz9-41" value="" style="endArrow=none;html=1;rounded=0;strokeWidth=5;fillColor=#f5f5f5;strokeColor=#666666;opacity=50;sketch=1;" edge="1" parent="3pQwZECXO3xDJ3NQUO3c-1">
                    <mxGeometry width="50" height="50" relative="1" as="geometry">
                        <mxPoint x="465" y="880" as="sourcePoint"/>
                        <mxPoint x="465" y="490" as="targetPoint"/>
                    </mxGeometry>
                </mxCell>
                <mxCell id="T0AQAwc7pnPNX5juXCz9-42" value="" style="endArrow=none;html=1;rounded=0;strokeWidth=5;fillColor=#f5f5f5;strokeColor=#666666;opacity=50;sketch=1;" edge="1" parent="3pQwZECXO3xDJ3NQUO3c-1">
                    <mxGeometry width="50" height="50" relative="1" as="geometry">
                        <mxPoint x="265" y="880" as="sourcePoint"/>
                        <mxPoint x="265" y="490" as="targetPoint"/>
                    </mxGeometry>
                </mxCell>
                <mxCell id="T0AQAwc7pnPNX5juXCz9-43" value="" style="endArrow=none;html=1;rounded=0;strokeWidth=5;fillColor=#f5f5f5;strokeColor=#666666;opacity=50;sketch=1;" edge="1" parent="3pQwZECXO3xDJ3NQUO3c-1">
                    <mxGeometry width="50" height="50" relative="1" as="geometry">
                        <mxPoint x="315.5" y="880" as="sourcePoint"/>
                        <mxPoint x="315.5" y="490" as="targetPoint"/>
                    </mxGeometry>
                </mxCell>
                <mxCell id="T0AQAwc7pnPNX5juXCz9-44" value="" style="endArrow=none;html=1;rounded=0;strokeWidth=5;fillColor=#f5f5f5;strokeColor=#666666;opacity=50;sketch=1;" edge="1" parent="3pQwZECXO3xDJ3NQUO3c-1">
                    <mxGeometry width="50" height="50" relative="1" as="geometry">
                        <mxPoint x="365" y="880" as="sourcePoint"/>
                        <mxPoint x="365" y="490" as="targetPoint"/>
                    </mxGeometry>
                </mxCell>
                <mxCell id="T0AQAwc7pnPNX5juXCz9-45" value="" style="endArrow=none;html=1;rounded=0;strokeWidth=5;fillColor=#f5f5f5;strokeColor=#666666;opacity=50;sketch=1;" edge="1" parent="3pQwZECXO3xDJ3NQUO3c-1">
                    <mxGeometry width="50" height="50" relative="1" as="geometry">
                        <mxPoint x="415" y="880" as="sourcePoint"/>
                        <mxPoint x="415" y="490" as="targetPoint"/>
                    </mxGeometry>
                </mxCell>
                <mxCell id="T0AQAwc7pnPNX5juXCz9-46" value="" style="endArrow=none;html=1;rounded=0;strokeWidth=5;fillColor=#f5f5f5;strokeColor=#666666;opacity=50;sketch=1;" edge="1" parent="3pQwZECXO3xDJ3NQUO3c-1">
                    <mxGeometry width="50" height="50" relative="1" as="geometry">
                        <mxPoint x="505" y="535" as="sourcePoint"/>
                        <mxPoint x="125" y="535" as="targetPoint"/>
                    </mxGeometry>
                </mxCell>
                <mxCell id="T0AQAwc7pnPNX5juXCz9-47" value="" style="endArrow=none;html=1;rounded=0;strokeWidth=5;fillColor=#f5f5f5;strokeColor=#666666;opacity=50;sketch=1;" edge="1" parent="3pQwZECXO3xDJ3NQUO3c-1">
                    <mxGeometry width="50" height="50" relative="1" as="geometry">
                        <mxPoint x="215" y="880" as="sourcePoint"/>
                        <mxPoint x="215" y="490" as="targetPoint"/>
                    </mxGeometry>
                </mxCell>
                <mxCell id="T0AQAwc7pnPNX5juXCz9-48" value="" style="whiteSpace=wrap;html=1;aspect=fixed;fillColor=none;strokeWidth=5;" vertex="1" parent="3pQwZECXO3xDJ3NQUO3c-1">
                    <mxGeometry x="160" y="530" width="310" height="310" as="geometry"/>
                </mxCell>
                <mxCell id="T0AQAwc7pnPNX5juXCz9-49" value="" style="rounded=1;whiteSpace=wrap;html=1;fillColor=#f8cecc;strokeColor=#b85450;opacity=80;" vertex="1" parent="3pQwZECXO3xDJ3NQUO3c-1">
                    <mxGeometry x="270" y="640" width="90" height="40" as="geometry"/>
                </mxCell>
                <mxCell id="T0AQAwc7pnPNX5juXCz9-50" value="" style="shape=flexArrow;endArrow=classic;html=1;rounded=0;sketch=1;strokeWidth=5;opacity=50;exitX=1;exitY=0.423;exitDx=0;exitDy=0;exitPerimeter=0;" edge="1" source="T0AQAwc7pnPNX5juXCz9-48" parent="3pQwZECXO3xDJ3NQUO3c-1">
                    <mxGeometry width="50" height="50" relative="1" as="geometry">
                        <mxPoint x="390" y="780" as="sourcePoint"/>
                        <mxPoint x="520" y="660" as="targetPoint"/>
                    </mxGeometry>
                </mxCell>
                <mxCell id="T0AQAwc7pnPNX5juXCz9-51" value="salida" style="text;html=1;align=center;verticalAlign=middle;resizable=0;points=[];autosize=1;strokeColor=none;fillColor=none;" vertex="1" parent="3pQwZECXO3xDJ3NQUO3c-1">
                    <mxGeometry x="514" y="650" width="50" height="20" as="geometry"/>
                </mxCell>
                <mxCell id="T0AQAwc7pnPNX5juXCz9-52" value="" style="endArrow=none;html=1;rounded=0;strokeWidth=5;fillColor=#f5f5f5;strokeColor=#666666;opacity=50;sketch=1;" edge="1" parent="3pQwZECXO3xDJ3NQUO3c-1">
                    <mxGeometry width="50" height="50" relative="1" as="geometry">
                        <mxPoint x="505" y="994.5" as="sourcePoint"/>
                        <mxPoint x="125" y="994.5" as="targetPoint"/>
                    </mxGeometry>
                </mxCell>
                <mxCell id="T0AQAwc7pnPNX5juXCz9-53" value="" style="endArrow=none;html=1;rounded=0;strokeWidth=5;fillColor=#f5f5f5;strokeColor=#666666;opacity=50;sketch=1;" edge="1" parent="3pQwZECXO3xDJ3NQUO3c-1">
                    <mxGeometry width="50" height="50" relative="1" as="geometry">
                        <mxPoint x="505" y="1045" as="sourcePoint"/>
                        <mxPoint x="125" y="1045" as="targetPoint"/>
                    </mxGeometry>
                </mxCell>
                <mxCell id="T0AQAwc7pnPNX5juXCz9-54" value="" style="endArrow=none;html=1;rounded=0;strokeWidth=5;fillColor=#f5f5f5;strokeColor=#666666;opacity=50;sketch=1;" edge="1" parent="3pQwZECXO3xDJ3NQUO3c-1">
                    <mxGeometry width="50" height="50" relative="1" as="geometry">
                        <mxPoint x="505" y="1094.5" as="sourcePoint"/>
                        <mxPoint x="125" y="1094.5" as="targetPoint"/>
                    </mxGeometry>
                </mxCell>
                <mxCell id="T0AQAwc7pnPNX5juXCz9-55" value="" style="endArrow=none;html=1;rounded=0;strokeWidth=5;fillColor=#f5f5f5;strokeColor=#666666;opacity=50;sketch=1;" edge="1" parent="3pQwZECXO3xDJ3NQUO3c-1">
                    <mxGeometry width="50" height="50" relative="1" as="geometry">
                        <mxPoint x="505" y="1145" as="sourcePoint"/>
                        <mxPoint x="125" y="1145" as="targetPoint"/>
                    </mxGeometry>
                </mxCell>
                <mxCell id="T0AQAwc7pnPNX5juXCz9-56" value="" style="endArrow=none;html=1;rounded=0;strokeWidth=5;fillColor=#f5f5f5;strokeColor=#666666;opacity=50;sketch=1;" edge="1" parent="3pQwZECXO3xDJ3NQUO3c-1">
                    <mxGeometry width="50" height="50" relative="1" as="geometry">
                        <mxPoint x="505" y="1194.5" as="sourcePoint"/>
                        <mxPoint x="125" y="1194.5" as="targetPoint"/>
                    </mxGeometry>
                </mxCell>
                <mxCell id="T0AQAwc7pnPNX5juXCz9-57" value="" style="endArrow=none;html=1;rounded=0;strokeWidth=5;fillColor=#f5f5f5;strokeColor=#666666;opacity=50;sketch=1;" edge="1" parent="3pQwZECXO3xDJ3NQUO3c-1">
                    <mxGeometry width="50" height="50" relative="1" as="geometry">
                        <mxPoint x="505" y="1245" as="sourcePoint"/>
                        <mxPoint x="125" y="1245" as="targetPoint"/>
                    </mxGeometry>
                </mxCell>
                <mxCell id="T0AQAwc7pnPNX5juXCz9-58" value="" style="endArrow=none;html=1;rounded=0;strokeWidth=5;fillColor=#f5f5f5;strokeColor=#666666;opacity=50;sketch=1;" edge="1" parent="3pQwZECXO3xDJ3NQUO3c-1">
                    <mxGeometry width="50" height="50" relative="1" as="geometry">
                        <mxPoint x="165" y="1290" as="sourcePoint"/>
                        <mxPoint x="165" y="900" as="targetPoint"/>
                    </mxGeometry>
                </mxCell>
                <mxCell id="T0AQAwc7pnPNX5juXCz9-59" value="" style="endArrow=none;html=1;rounded=0;strokeWidth=5;fillColor=#f5f5f5;strokeColor=#666666;opacity=50;sketch=1;" edge="1" parent="3pQwZECXO3xDJ3NQUO3c-1">
                    <mxGeometry width="50" height="50" relative="1" as="geometry">
                        <mxPoint x="465" y="1290" as="sourcePoint"/>
                        <mxPoint x="465" y="900" as="targetPoint"/>
                    </mxGeometry>
                </mxCell>
                <mxCell id="T0AQAwc7pnPNX5juXCz9-60" value="" style="endArrow=none;html=1;rounded=0;strokeWidth=5;fillColor=#f5f5f5;strokeColor=#666666;opacity=50;sketch=1;" edge="1" parent="3pQwZECXO3xDJ3NQUO3c-1">
                    <mxGeometry width="50" height="50" relative="1" as="geometry">
                        <mxPoint x="265" y="1290" as="sourcePoint"/>
                        <mxPoint x="265" y="900" as="targetPoint"/>
                    </mxGeometry>
                </mxCell>
                <mxCell id="T0AQAwc7pnPNX5juXCz9-61" value="" style="endArrow=none;html=1;rounded=0;strokeWidth=5;fillColor=#f5f5f5;strokeColor=#666666;opacity=50;sketch=1;" edge="1" parent="3pQwZECXO3xDJ3NQUO3c-1">
                    <mxGeometry width="50" height="50" relative="1" as="geometry">
                        <mxPoint x="315.5" y="1290" as="sourcePoint"/>
                        <mxPoint x="315.5" y="900" as="targetPoint"/>
                    </mxGeometry>
                </mxCell>
                <mxCell id="T0AQAwc7pnPNX5juXCz9-62" value="" style="endArrow=none;html=1;rounded=0;strokeWidth=5;fillColor=#f5f5f5;strokeColor=#666666;opacity=50;sketch=1;" edge="1" parent="3pQwZECXO3xDJ3NQUO3c-1">
                    <mxGeometry width="50" height="50" relative="1" as="geometry">
                        <mxPoint x="365" y="1290" as="sourcePoint"/>
                        <mxPoint x="365" y="900" as="targetPoint"/>
                    </mxGeometry>
                </mxCell>
                <mxCell id="T0AQAwc7pnPNX5juXCz9-63" value="" style="endArrow=none;html=1;rounded=0;strokeWidth=5;fillColor=#f5f5f5;strokeColor=#666666;opacity=50;sketch=1;" edge="1" parent="3pQwZECXO3xDJ3NQUO3c-1">
                    <mxGeometry width="50" height="50" relative="1" as="geometry">
                        <mxPoint x="415" y="1290" as="sourcePoint"/>
                        <mxPoint x="415" y="900" as="targetPoint"/>
                    </mxGeometry>
                </mxCell>
                <mxCell id="T0AQAwc7pnPNX5juXCz9-64" value="" style="endArrow=none;html=1;rounded=0;strokeWidth=5;fillColor=#f5f5f5;strokeColor=#666666;opacity=50;sketch=1;" edge="1" parent="3pQwZECXO3xDJ3NQUO3c-1">
                    <mxGeometry width="50" height="50" relative="1" as="geometry">
                        <mxPoint x="505" y="945" as="sourcePoint"/>
                        <mxPoint x="125" y="945" as="targetPoint"/>
                    </mxGeometry>
                </mxCell>
                <mxCell id="T0AQAwc7pnPNX5juXCz9-65" value="" style="endArrow=none;html=1;rounded=0;strokeWidth=5;fillColor=#f5f5f5;strokeColor=#666666;opacity=50;sketch=1;" edge="1" parent="3pQwZECXO3xDJ3NQUO3c-1">
                    <mxGeometry width="50" height="50" relative="1" as="geometry">
                        <mxPoint x="215" y="1290" as="sourcePoint"/>
                        <mxPoint x="215" y="900" as="targetPoint"/>
                    </mxGeometry>
                </mxCell>
                <mxCell id="T0AQAwc7pnPNX5juXCz9-66" value="" style="whiteSpace=wrap;html=1;aspect=fixed;fillColor=none;strokeWidth=5;" vertex="1" parent="3pQwZECXO3xDJ3NQUO3c-1">
                    <mxGeometry x="160" y="940" width="310" height="310" as="geometry"/>
                </mxCell>
                <mxCell id="T0AQAwc7pnPNX5juXCz9-67" value="" style="rounded=1;whiteSpace=wrap;html=1;fillColor=#f8cecc;strokeColor=#b85450;opacity=80;" vertex="1" parent="3pQwZECXO3xDJ3NQUO3c-1">
                    <mxGeometry x="320" y="1050" width="90" height="40" as="geometry"/>
                </mxCell>
                <mxCell id="T0AQAwc7pnPNX5juXCz9-68" value="" style="shape=flexArrow;endArrow=classic;html=1;rounded=0;sketch=1;strokeWidth=5;opacity=50;exitX=1;exitY=0.423;exitDx=0;exitDy=0;exitPerimeter=0;" edge="1" source="T0AQAwc7pnPNX5juXCz9-66" parent="3pQwZECXO3xDJ3NQUO3c-1">
                    <mxGeometry width="50" height="50" relative="1" as="geometry">
                        <mxPoint x="390" y="1190" as="sourcePoint"/>
                        <mxPoint x="520" y="1070" as="targetPoint"/>
                    </mxGeometry>
                </mxCell>
                <mxCell id="T0AQAwc7pnPNX5juXCz9-69" value="salida" style="text;html=1;align=center;verticalAlign=middle;resizable=0;points=[];autosize=1;strokeColor=none;fillColor=none;" vertex="1" parent="3pQwZECXO3xDJ3NQUO3c-1">
                    <mxGeometry x="514" y="1060" width="50" height="20" as="geometry"/>
                </mxCell>
                <mxCell id="T0AQAwc7pnPNX5juXCz9-70" value="" style="endArrow=none;html=1;rounded=0;strokeWidth=5;fillColor=#f5f5f5;strokeColor=#666666;opacity=50;sketch=1;" edge="1" parent="3pQwZECXO3xDJ3NQUO3c-1">
                    <mxGeometry width="50" height="50" relative="1" as="geometry">
                        <mxPoint x="505" y="1414.5" as="sourcePoint"/>
                        <mxPoint x="125" y="1414.5" as="targetPoint"/>
                    </mxGeometry>
                </mxCell>
                <mxCell id="T0AQAwc7pnPNX5juXCz9-71" value="" style="endArrow=none;html=1;rounded=0;strokeWidth=5;fillColor=#f5f5f5;strokeColor=#666666;opacity=50;sketch=1;" edge="1" parent="3pQwZECXO3xDJ3NQUO3c-1">
                    <mxGeometry width="50" height="50" relative="1" as="geometry">
                        <mxPoint x="505" y="1465" as="sourcePoint"/>
                        <mxPoint x="125" y="1465" as="targetPoint"/>
                    </mxGeometry>
                </mxCell>
                <mxCell id="T0AQAwc7pnPNX5juXCz9-72" value="" style="endArrow=none;html=1;rounded=0;strokeWidth=5;fillColor=#f5f5f5;strokeColor=#666666;opacity=50;sketch=1;" edge="1" parent="3pQwZECXO3xDJ3NQUO3c-1">
                    <mxGeometry width="50" height="50" relative="1" as="geometry">
                        <mxPoint x="505" y="1514.5" as="sourcePoint"/>
                        <mxPoint x="125" y="1514.5" as="targetPoint"/>
                    </mxGeometry>
                </mxCell>
                <mxCell id="T0AQAwc7pnPNX5juXCz9-73" value="" style="endArrow=none;html=1;rounded=0;strokeWidth=5;fillColor=#f5f5f5;strokeColor=#666666;opacity=50;sketch=1;" edge="1" parent="3pQwZECXO3xDJ3NQUO3c-1">
                    <mxGeometry width="50" height="50" relative="1" as="geometry">
                        <mxPoint x="505" y="1565" as="sourcePoint"/>
                        <mxPoint x="125" y="1565" as="targetPoint"/>
                    </mxGeometry>
                </mxCell>
                <mxCell id="T0AQAwc7pnPNX5juXCz9-74" value="" style="endArrow=none;html=1;rounded=0;strokeWidth=5;fillColor=#f5f5f5;strokeColor=#666666;opacity=50;sketch=1;" edge="1" parent="3pQwZECXO3xDJ3NQUO3c-1">
                    <mxGeometry width="50" height="50" relative="1" as="geometry">
                        <mxPoint x="505" y="1614.5" as="sourcePoint"/>
                        <mxPoint x="125" y="1614.5" as="targetPoint"/>
                    </mxGeometry>
                </mxCell>
                <mxCell id="T0AQAwc7pnPNX5juXCz9-75" value="" style="endArrow=none;html=1;rounded=0;strokeWidth=5;fillColor=#f5f5f5;strokeColor=#666666;opacity=50;sketch=1;" edge="1" parent="3pQwZECXO3xDJ3NQUO3c-1">
                    <mxGeometry width="50" height="50" relative="1" as="geometry">
                        <mxPoint x="505" y="1665" as="sourcePoint"/>
                        <mxPoint x="125" y="1665" as="targetPoint"/>
                    </mxGeometry>
                </mxCell>
                <mxCell id="T0AQAwc7pnPNX5juXCz9-76" value="" style="endArrow=none;html=1;rounded=0;strokeWidth=5;fillColor=#f5f5f5;strokeColor=#666666;opacity=50;sketch=1;" edge="1" parent="3pQwZECXO3xDJ3NQUO3c-1">
                    <mxGeometry width="50" height="50" relative="1" as="geometry">
                        <mxPoint x="165" y="1710" as="sourcePoint"/>
                        <mxPoint x="165" y="1320" as="targetPoint"/>
                    </mxGeometry>
                </mxCell>
                <mxCell id="T0AQAwc7pnPNX5juXCz9-77" value="" style="endArrow=none;html=1;rounded=0;strokeWidth=5;fillColor=#f5f5f5;strokeColor=#666666;opacity=50;sketch=1;" edge="1" parent="3pQwZECXO3xDJ3NQUO3c-1">
                    <mxGeometry width="50" height="50" relative="1" as="geometry">
                        <mxPoint x="465" y="1710" as="sourcePoint"/>
                        <mxPoint x="465" y="1320" as="targetPoint"/>
                    </mxGeometry>
                </mxCell>
                <mxCell id="T0AQAwc7pnPNX5juXCz9-78" value="" style="endArrow=none;html=1;rounded=0;strokeWidth=5;fillColor=#f5f5f5;strokeColor=#666666;opacity=50;sketch=1;" edge="1" parent="3pQwZECXO3xDJ3NQUO3c-1">
                    <mxGeometry width="50" height="50" relative="1" as="geometry">
                        <mxPoint x="265" y="1710" as="sourcePoint"/>
                        <mxPoint x="265" y="1320" as="targetPoint"/>
                    </mxGeometry>
                </mxCell>
                <mxCell id="T0AQAwc7pnPNX5juXCz9-79" value="" style="endArrow=none;html=1;rounded=0;strokeWidth=5;fillColor=#f5f5f5;strokeColor=#666666;opacity=50;sketch=1;" edge="1" parent="3pQwZECXO3xDJ3NQUO3c-1">
                    <mxGeometry width="50" height="50" relative="1" as="geometry">
                        <mxPoint x="315.5" y="1710" as="sourcePoint"/>
                        <mxPoint x="315.5" y="1320" as="targetPoint"/>
                    </mxGeometry>
                </mxCell>
                <mxCell id="T0AQAwc7pnPNX5juXCz9-80" value="" style="endArrow=none;html=1;rounded=0;strokeWidth=5;fillColor=#f5f5f5;strokeColor=#666666;opacity=50;sketch=1;" edge="1" parent="3pQwZECXO3xDJ3NQUO3c-1">
                    <mxGeometry width="50" height="50" relative="1" as="geometry">
                        <mxPoint x="365" y="1710" as="sourcePoint"/>
                        <mxPoint x="365" y="1320" as="targetPoint"/>
                    </mxGeometry>
                </mxCell>
                <mxCell id="T0AQAwc7pnPNX5juXCz9-81" value="" style="endArrow=none;html=1;rounded=0;strokeWidth=5;fillColor=#f5f5f5;strokeColor=#666666;opacity=50;sketch=1;" edge="1" parent="3pQwZECXO3xDJ3NQUO3c-1">
                    <mxGeometry width="50" height="50" relative="1" as="geometry">
                        <mxPoint x="415" y="1710" as="sourcePoint"/>
                        <mxPoint x="415" y="1320" as="targetPoint"/>
                    </mxGeometry>
                </mxCell>
                <mxCell id="T0AQAwc7pnPNX5juXCz9-82" value="" style="endArrow=none;html=1;rounded=0;strokeWidth=5;fillColor=#f5f5f5;strokeColor=#666666;opacity=50;sketch=1;" edge="1" parent="3pQwZECXO3xDJ3NQUO3c-1">
                    <mxGeometry width="50" height="50" relative="1" as="geometry">
                        <mxPoint x="505" y="1365" as="sourcePoint"/>
                        <mxPoint x="125" y="1365" as="targetPoint"/>
                    </mxGeometry>
                </mxCell>
                <mxCell id="T0AQAwc7pnPNX5juXCz9-83" value="" style="endArrow=none;html=1;rounded=0;strokeWidth=5;fillColor=#f5f5f5;strokeColor=#666666;opacity=50;sketch=1;" edge="1" parent="3pQwZECXO3xDJ3NQUO3c-1">
                    <mxGeometry width="50" height="50" relative="1" as="geometry">
                        <mxPoint x="215" y="1710" as="sourcePoint"/>
                        <mxPoint x="215" y="1320" as="targetPoint"/>
                    </mxGeometry>
                </mxCell>
                <mxCell id="T0AQAwc7pnPNX5juXCz9-84" value="" style="whiteSpace=wrap;html=1;aspect=fixed;fillColor=none;strokeWidth=5;" vertex="1" parent="3pQwZECXO3xDJ3NQUO3c-1">
                    <mxGeometry x="160" y="1360" width="310" height="310" as="geometry"/>
                </mxCell>
                <mxCell id="T0AQAwc7pnPNX5juXCz9-85" value="" style="rounded=1;whiteSpace=wrap;html=1;fillColor=#f8cecc;strokeColor=#b85450;opacity=80;" vertex="1" parent="3pQwZECXO3xDJ3NQUO3c-1">
                    <mxGeometry x="370" y="1470" width="90" height="40" as="geometry"/>
                </mxCell>
                <mxCell id="T0AQAwc7pnPNX5juXCz9-86" value="" style="shape=flexArrow;endArrow=classic;html=1;rounded=0;sketch=1;strokeWidth=5;opacity=50;exitX=1;exitY=0.423;exitDx=0;exitDy=0;exitPerimeter=0;" edge="1" source="T0AQAwc7pnPNX5juXCz9-84" parent="3pQwZECXO3xDJ3NQUO3c-1">
                    <mxGeometry width="50" height="50" relative="1" as="geometry">
                        <mxPoint x="390" y="1610" as="sourcePoint"/>
                        <mxPoint x="520" y="1490" as="targetPoint"/>
                    </mxGeometry>
                </mxCell>
                <mxCell id="T0AQAwc7pnPNX5juXCz9-87" value="salida" style="text;html=1;align=center;verticalAlign=middle;resizable=0;points=[];autosize=1;strokeColor=none;fillColor=none;" vertex="1" parent="3pQwZECXO3xDJ3NQUO3c-1">
                    <mxGeometry x="514" y="1480" width="50" height="20" as="geometry"/>
                </mxCell>
                <mxCell id="T0AQAwc7pnPNX5juXCz9-88" value="" style="endArrow=none;html=1;rounded=0;strokeWidth=5;fillColor=#f5f5f5;strokeColor=#666666;opacity=50;sketch=1;" edge="1" parent="3pQwZECXO3xDJ3NQUO3c-1">
                    <mxGeometry width="50" height="50" relative="1" as="geometry">
                        <mxPoint x="505" y="1834.5" as="sourcePoint"/>
                        <mxPoint x="125" y="1834.5" as="targetPoint"/>
                    </mxGeometry>
                </mxCell>
                <mxCell id="T0AQAwc7pnPNX5juXCz9-89" value="" style="endArrow=none;html=1;rounded=0;strokeWidth=5;fillColor=#f5f5f5;strokeColor=#666666;opacity=50;sketch=1;" edge="1" parent="3pQwZECXO3xDJ3NQUO3c-1">
                    <mxGeometry width="50" height="50" relative="1" as="geometry">
                        <mxPoint x="505" y="1885" as="sourcePoint"/>
                        <mxPoint x="125" y="1885" as="targetPoint"/>
                    </mxGeometry>
                </mxCell>
                <mxCell id="T0AQAwc7pnPNX5juXCz9-90" value="" style="endArrow=none;html=1;rounded=0;strokeWidth=5;fillColor=#f5f5f5;strokeColor=#666666;opacity=50;sketch=1;" edge="1" parent="3pQwZECXO3xDJ3NQUO3c-1">
                    <mxGeometry width="50" height="50" relative="1" as="geometry">
                        <mxPoint x="505" y="1934.5" as="sourcePoint"/>
                        <mxPoint x="125" y="1934.5" as="targetPoint"/>
                    </mxGeometry>
                </mxCell>
                <mxCell id="T0AQAwc7pnPNX5juXCz9-91" value="" style="endArrow=none;html=1;rounded=0;strokeWidth=5;fillColor=#f5f5f5;strokeColor=#666666;opacity=50;sketch=1;" edge="1" parent="3pQwZECXO3xDJ3NQUO3c-1">
                    <mxGeometry width="50" height="50" relative="1" as="geometry">
                        <mxPoint x="505" y="1985" as="sourcePoint"/>
                        <mxPoint x="125" y="1985" as="targetPoint"/>
                    </mxGeometry>
                </mxCell>
                <mxCell id="T0AQAwc7pnPNX5juXCz9-92" value="" style="endArrow=none;html=1;rounded=0;strokeWidth=5;fillColor=#f5f5f5;strokeColor=#666666;opacity=50;sketch=1;" edge="1" parent="3pQwZECXO3xDJ3NQUO3c-1">
                    <mxGeometry width="50" height="50" relative="1" as="geometry">
                        <mxPoint x="505" y="2034.5" as="sourcePoint"/>
                        <mxPoint x="125" y="2034.5" as="targetPoint"/>
                    </mxGeometry>
                </mxCell>
                <mxCell id="T0AQAwc7pnPNX5juXCz9-93" value="" style="endArrow=none;html=1;rounded=0;strokeWidth=5;fillColor=#f5f5f5;strokeColor=#666666;opacity=50;sketch=1;" edge="1" parent="3pQwZECXO3xDJ3NQUO3c-1">
                    <mxGeometry width="50" height="50" relative="1" as="geometry">
                        <mxPoint x="505" y="2085" as="sourcePoint"/>
                        <mxPoint x="125" y="2085" as="targetPoint"/>
                    </mxGeometry>
                </mxCell>
                <mxCell id="T0AQAwc7pnPNX5juXCz9-94" value="" style="endArrow=none;html=1;rounded=0;strokeWidth=5;fillColor=#f5f5f5;strokeColor=#666666;opacity=50;sketch=1;" edge="1" parent="3pQwZECXO3xDJ3NQUO3c-1">
                    <mxGeometry width="50" height="50" relative="1" as="geometry">
                        <mxPoint x="165" y="2130" as="sourcePoint"/>
                        <mxPoint x="165" y="1740" as="targetPoint"/>
                    </mxGeometry>
                </mxCell>
                <mxCell id="T0AQAwc7pnPNX5juXCz9-95" value="" style="endArrow=none;html=1;rounded=0;strokeWidth=5;fillColor=#f5f5f5;strokeColor=#666666;opacity=50;sketch=1;" edge="1" parent="3pQwZECXO3xDJ3NQUO3c-1">
                    <mxGeometry width="50" height="50" relative="1" as="geometry">
                        <mxPoint x="465" y="2130" as="sourcePoint"/>
                        <mxPoint x="465" y="1740" as="targetPoint"/>
                    </mxGeometry>
                </mxCell>
                <mxCell id="T0AQAwc7pnPNX5juXCz9-96" value="" style="endArrow=none;html=1;rounded=0;strokeWidth=5;fillColor=#f5f5f5;strokeColor=#666666;opacity=50;sketch=1;" edge="1" parent="3pQwZECXO3xDJ3NQUO3c-1">
                    <mxGeometry width="50" height="50" relative="1" as="geometry">
                        <mxPoint x="265" y="2130" as="sourcePoint"/>
                        <mxPoint x="265" y="1740" as="targetPoint"/>
                    </mxGeometry>
                </mxCell>
                <mxCell id="T0AQAwc7pnPNX5juXCz9-97" value="" style="endArrow=none;html=1;rounded=0;strokeWidth=5;fillColor=#f5f5f5;strokeColor=#666666;opacity=50;sketch=1;" edge="1" parent="3pQwZECXO3xDJ3NQUO3c-1">
                    <mxGeometry width="50" height="50" relative="1" as="geometry">
                        <mxPoint x="315.5" y="2130" as="sourcePoint"/>
                        <mxPoint x="315.5" y="1740" as="targetPoint"/>
                    </mxGeometry>
                </mxCell>
                <mxCell id="T0AQAwc7pnPNX5juXCz9-98" value="" style="endArrow=none;html=1;rounded=0;strokeWidth=5;fillColor=#f5f5f5;strokeColor=#666666;opacity=50;sketch=1;" edge="1" parent="3pQwZECXO3xDJ3NQUO3c-1">
                    <mxGeometry width="50" height="50" relative="1" as="geometry">
                        <mxPoint x="365" y="2130" as="sourcePoint"/>
                        <mxPoint x="365" y="1740" as="targetPoint"/>
                    </mxGeometry>
                </mxCell>
                <mxCell id="T0AQAwc7pnPNX5juXCz9-99" value="" style="endArrow=none;html=1;rounded=0;strokeWidth=5;fillColor=#f5f5f5;strokeColor=#666666;opacity=50;sketch=1;" edge="1" parent="3pQwZECXO3xDJ3NQUO3c-1">
                    <mxGeometry width="50" height="50" relative="1" as="geometry">
                        <mxPoint x="415" y="2130" as="sourcePoint"/>
                        <mxPoint x="415" y="1740" as="targetPoint"/>
                    </mxGeometry>
                </mxCell>
                <mxCell id="T0AQAwc7pnPNX5juXCz9-100" value="" style="endArrow=none;html=1;rounded=0;strokeWidth=5;fillColor=#f5f5f5;strokeColor=#666666;opacity=50;sketch=1;" edge="1" parent="3pQwZECXO3xDJ3NQUO3c-1">
                    <mxGeometry width="50" height="50" relative="1" as="geometry">
                        <mxPoint x="505" y="1785" as="sourcePoint"/>
                        <mxPoint x="125" y="1785" as="targetPoint"/>
                    </mxGeometry>
                </mxCell>
                <mxCell id="T0AQAwc7pnPNX5juXCz9-101" value="" style="endArrow=none;html=1;rounded=0;strokeWidth=5;fillColor=#f5f5f5;strokeColor=#666666;opacity=50;sketch=1;" edge="1" parent="3pQwZECXO3xDJ3NQUO3c-1">
                    <mxGeometry width="50" height="50" relative="1" as="geometry">
                        <mxPoint x="215" y="2130" as="sourcePoint"/>
                        <mxPoint x="215" y="1740" as="targetPoint"/>
                    </mxGeometry>
                </mxCell>
                <mxCell id="T0AQAwc7pnPNX5juXCz9-102" value="" style="whiteSpace=wrap;html=1;aspect=fixed;fillColor=none;strokeWidth=5;" vertex="1" parent="3pQwZECXO3xDJ3NQUO3c-1">
                    <mxGeometry x="160" y="1780" width="310" height="310" as="geometry"/>
                </mxCell>
                <mxCell id="T0AQAwc7pnPNX5juXCz9-103" value="" style="rounded=1;whiteSpace=wrap;html=1;fillColor=#f8cecc;strokeColor=#b85450;opacity=80;" vertex="1" parent="3pQwZECXO3xDJ3NQUO3c-1">
                    <mxGeometry x="420" y="1890" width="90" height="40" as="geometry"/>
                </mxCell>
                <mxCell id="T0AQAwc7pnPNX5juXCz9-104" value="" style="shape=flexArrow;endArrow=classic;html=1;rounded=0;sketch=1;strokeWidth=5;opacity=50;exitX=1;exitY=0.423;exitDx=0;exitDy=0;exitPerimeter=0;" edge="1" source="T0AQAwc7pnPNX5juXCz9-102" parent="3pQwZECXO3xDJ3NQUO3c-1">
                    <mxGeometry width="50" height="50" relative="1" as="geometry">
                        <mxPoint x="390" y="2030" as="sourcePoint"/>
                        <mxPoint x="520" y="1910" as="targetPoint"/>
                    </mxGeometry>
                </mxCell>
                <mxCell id="T0AQAwc7pnPNX5juXCz9-105" value="salida" style="text;html=1;align=center;verticalAlign=middle;resizable=0;points=[];autosize=1;strokeColor=none;fillColor=none;" vertex="1" parent="3pQwZECXO3xDJ3NQUO3c-1">
                    <mxGeometry x="514" y="1900" width="50" height="20" as="geometry"/>
                </mxCell>
                <mxCell id="T0AQAwc7pnPNX5juXCz9-106" value="" style="endArrow=none;html=1;rounded=0;strokeWidth=5;fillColor=#f5f5f5;strokeColor=#666666;opacity=50;sketch=1;" edge="1" parent="3pQwZECXO3xDJ3NQUO3c-1">
                    <mxGeometry width="50" height="50" relative="1" as="geometry">
                        <mxPoint x="505" y="2244.5" as="sourcePoint"/>
                        <mxPoint x="125" y="2244.5" as="targetPoint"/>
                    </mxGeometry>
                </mxCell>
                <mxCell id="T0AQAwc7pnPNX5juXCz9-107" value="" style="endArrow=none;html=1;rounded=0;strokeWidth=5;fillColor=#f5f5f5;strokeColor=#666666;opacity=50;sketch=1;" edge="1" parent="3pQwZECXO3xDJ3NQUO3c-1">
                    <mxGeometry width="50" height="50" relative="1" as="geometry">
                        <mxPoint x="505" y="2295" as="sourcePoint"/>
                        <mxPoint x="125" y="2295" as="targetPoint"/>
                    </mxGeometry>
                </mxCell>
                <mxCell id="T0AQAwc7pnPNX5juXCz9-108" value="" style="endArrow=none;html=1;rounded=0;strokeWidth=5;fillColor=#f5f5f5;strokeColor=#666666;opacity=50;sketch=1;" edge="1" parent="3pQwZECXO3xDJ3NQUO3c-1">
                    <mxGeometry width="50" height="50" relative="1" as="geometry">
                        <mxPoint x="505" y="2344.5" as="sourcePoint"/>
                        <mxPoint x="125" y="2344.5" as="targetPoint"/>
                    </mxGeometry>
                </mxCell>
                <mxCell id="T0AQAwc7pnPNX5juXCz9-109" value="" style="endArrow=none;html=1;rounded=0;strokeWidth=5;fillColor=#f5f5f5;strokeColor=#666666;opacity=50;sketch=1;" edge="1" parent="3pQwZECXO3xDJ3NQUO3c-1">
                    <mxGeometry width="50" height="50" relative="1" as="geometry">
                        <mxPoint x="505" y="2395" as="sourcePoint"/>
                        <mxPoint x="125" y="2395" as="targetPoint"/>
                    </mxGeometry>
                </mxCell>
                <mxCell id="T0AQAwc7pnPNX5juXCz9-110" value="" style="endArrow=none;html=1;rounded=0;strokeWidth=5;fillColor=#f5f5f5;strokeColor=#666666;opacity=50;sketch=1;" edge="1" parent="3pQwZECXO3xDJ3NQUO3c-1">
                    <mxGeometry width="50" height="50" relative="1" as="geometry">
                        <mxPoint x="505" y="2444.5" as="sourcePoint"/>
                        <mxPoint x="125" y="2444.5" as="targetPoint"/>
                    </mxGeometry>
                </mxCell>
                <mxCell id="T0AQAwc7pnPNX5juXCz9-111" value="" style="endArrow=none;html=1;rounded=0;strokeWidth=5;fillColor=#f5f5f5;strokeColor=#666666;opacity=50;sketch=1;" edge="1" parent="3pQwZECXO3xDJ3NQUO3c-1">
                    <mxGeometry width="50" height="50" relative="1" as="geometry">
                        <mxPoint x="505" y="2495" as="sourcePoint"/>
                        <mxPoint x="125" y="2495" as="targetPoint"/>
                    </mxGeometry>
                </mxCell>
                <mxCell id="T0AQAwc7pnPNX5juXCz9-112" value="" style="endArrow=none;html=1;rounded=0;strokeWidth=5;fillColor=#f5f5f5;strokeColor=#666666;opacity=50;sketch=1;" edge="1" parent="3pQwZECXO3xDJ3NQUO3c-1">
                    <mxGeometry width="50" height="50" relative="1" as="geometry">
                        <mxPoint x="165" y="2540" as="sourcePoint"/>
                        <mxPoint x="165" y="2150" as="targetPoint"/>
                    </mxGeometry>
                </mxCell>
                <mxCell id="T0AQAwc7pnPNX5juXCz9-113" value="" style="endArrow=none;html=1;rounded=0;strokeWidth=5;fillColor=#f5f5f5;strokeColor=#666666;opacity=50;sketch=1;" edge="1" parent="3pQwZECXO3xDJ3NQUO3c-1">
                    <mxGeometry width="50" height="50" relative="1" as="geometry">
                        <mxPoint x="465" y="2540" as="sourcePoint"/>
                        <mxPoint x="465" y="2150" as="targetPoint"/>
                    </mxGeometry>
                </mxCell>
                <mxCell id="T0AQAwc7pnPNX5juXCz9-114" value="" style="endArrow=none;html=1;rounded=0;strokeWidth=5;fillColor=#f5f5f5;strokeColor=#666666;opacity=50;sketch=1;" edge="1" parent="3pQwZECXO3xDJ3NQUO3c-1">
                    <mxGeometry width="50" height="50" relative="1" as="geometry">
                        <mxPoint x="265" y="2540" as="sourcePoint"/>
                        <mxPoint x="265" y="2150" as="targetPoint"/>
                    </mxGeometry>
                </mxCell>
                <mxCell id="T0AQAwc7pnPNX5juXCz9-115" value="" style="endArrow=none;html=1;rounded=0;strokeWidth=5;fillColor=#f5f5f5;strokeColor=#666666;opacity=50;sketch=1;" edge="1" parent="3pQwZECXO3xDJ3NQUO3c-1">
                    <mxGeometry width="50" height="50" relative="1" as="geometry">
                        <mxPoint x="315.5" y="2540" as="sourcePoint"/>
                        <mxPoint x="315.5" y="2150" as="targetPoint"/>
                    </mxGeometry>
                </mxCell>
                <mxCell id="T0AQAwc7pnPNX5juXCz9-116" value="" style="endArrow=none;html=1;rounded=0;strokeWidth=5;fillColor=#f5f5f5;strokeColor=#666666;opacity=50;sketch=1;" edge="1" parent="3pQwZECXO3xDJ3NQUO3c-1">
                    <mxGeometry width="50" height="50" relative="1" as="geometry">
                        <mxPoint x="365" y="2540" as="sourcePoint"/>
                        <mxPoint x="365" y="2150" as="targetPoint"/>
                    </mxGeometry>
                </mxCell>
                <mxCell id="T0AQAwc7pnPNX5juXCz9-117" value="" style="endArrow=none;html=1;rounded=0;strokeWidth=5;fillColor=#f5f5f5;strokeColor=#666666;opacity=50;sketch=1;" edge="1" parent="3pQwZECXO3xDJ3NQUO3c-1">
                    <mxGeometry width="50" height="50" relative="1" as="geometry">
                        <mxPoint x="415" y="2540" as="sourcePoint"/>
                        <mxPoint x="415" y="2150" as="targetPoint"/>
                    </mxGeometry>
                </mxCell>
                <mxCell id="T0AQAwc7pnPNX5juXCz9-118" value="" style="endArrow=none;html=1;rounded=0;strokeWidth=5;fillColor=#f5f5f5;strokeColor=#666666;opacity=50;sketch=1;" edge="1" parent="3pQwZECXO3xDJ3NQUO3c-1">
                    <mxGeometry width="50" height="50" relative="1" as="geometry">
                        <mxPoint x="505" y="2195" as="sourcePoint"/>
                        <mxPoint x="125" y="2195" as="targetPoint"/>
                    </mxGeometry>
                </mxCell>
                <mxCell id="T0AQAwc7pnPNX5juXCz9-119" value="" style="endArrow=none;html=1;rounded=0;strokeWidth=5;fillColor=#f5f5f5;strokeColor=#666666;opacity=50;sketch=1;" edge="1" parent="3pQwZECXO3xDJ3NQUO3c-1">
                    <mxGeometry width="50" height="50" relative="1" as="geometry">
                        <mxPoint x="215" y="2540" as="sourcePoint"/>
                        <mxPoint x="215" y="2150" as="targetPoint"/>
                    </mxGeometry>
                </mxCell>
                <mxCell id="T0AQAwc7pnPNX5juXCz9-120" value="" style="whiteSpace=wrap;html=1;aspect=fixed;fillColor=none;strokeWidth=5;" vertex="1" parent="3pQwZECXO3xDJ3NQUO3c-1">
                    <mxGeometry x="160" y="2190" width="310" height="310" as="geometry"/>
                </mxCell>
                <mxCell id="T0AQAwc7pnPNX5juXCz9-121" value="" style="rounded=1;whiteSpace=wrap;html=1;fillColor=#f8cecc;strokeColor=#b85450;opacity=80;" vertex="1" parent="3pQwZECXO3xDJ3NQUO3c-1">
                    <mxGeometry x="474" y="2300" width="90" height="40" as="geometry"/>
                </mxCell>
                <mxCell id="T0AQAwc7pnPNX5juXCz9-122" value="" style="shape=flexArrow;endArrow=classic;html=1;rounded=0;sketch=1;strokeWidth=5;opacity=50;exitX=1;exitY=0.423;exitDx=0;exitDy=0;exitPerimeter=0;" edge="1" source="T0AQAwc7pnPNX5juXCz9-120" parent="3pQwZECXO3xDJ3NQUO3c-1">
                    <mxGeometry width="50" height="50" relative="1" as="geometry">
                        <mxPoint x="390" y="2440" as="sourcePoint"/>
                        <mxPoint x="520" y="2320" as="targetPoint"/>
                    </mxGeometry>
                </mxCell>
                <mxCell id="T0AQAwc7pnPNX5juXCz9-123" value="salida" style="text;html=1;align=center;verticalAlign=middle;resizable=0;points=[];autosize=1;strokeColor=none;fillColor=none;" vertex="1" parent="3pQwZECXO3xDJ3NQUO3c-1">
                    <mxGeometry x="514" y="2310" width="50" height="20" as="geometry"/>
                </mxCell>
            </root>
        </mxGraphModel>
    </diagram>
</mxfile>